<svg height="512pt" viewBox="0 -19 512.00034 512" width="512pt" xmlns="http://www.w3.org/2000/svg"><g fill="#f6838d"><path d="m256.269531 10 78.582031 86.851562c46.394532 51.285157 33.664063 132.296876-26.226562 166.875l-52.535156 30.328126-52.40625-30.257813c-59.933594-34.601563-72.632813-115.6875-26.148438-166.957031zm0 0"/><path d="m10 435.929688 35.929688-111.480469c21.210937-65.820313 97.734374-95.300781 157.625-60.722657l52.535156 30.328126v60.515624c0 69.203126-63.875 120.746094-131.515625 106.125zm0 0"/><path d="m502 436.238281-114.507812 24.625c-67.609376 14.539063-131.402344-36.992187-131.402344-106.148437v-60.660156l52.40625-30.257813c59.933594-34.601563 136.503906-5.054687 157.664062 60.835937zm0 0"/></g><path d="m287.304688 255.839844c5.78125 11.992187-2.328126 26.042968-15.605469 27.03125-7.496094 11.003906-23.71875 11.003906-31.214844 0-13.277344-.988282-21.390625-15.039063-15.609375-27.03125-5.78125-11.996094 2.332031-26.042969 15.609375-27.035156 7.496094-11.003907 23.71875-11.003907 31.214844 0 13.277343.992187 21.386719 15.039062 15.605469 27.035156zm0 0" fill="#fff"/><path d="m207.386719 286.132812c7.496093-11.003906 23.71875-11.003906 31.214843 0 13.277344.988282 21.386719 15.039063 15.605469 27.03125 5.78125 11.992188-2.328125 26.042969-15.605469 27.03125-7.496093 11.003907-23.71875 11.003907-31.214843 0-13.277344-.988281-21.390625-15.039062-15.609375-27.03125-5.78125-11.992187 2.332031-26.042968 15.609375-27.03125zm0 0" fill="#fff"/><path d="m273.582031 340.195312c-13.277343-.988281-21.390625-15.039062-15.609375-27.03125-5.78125-11.992187 2.328125-26.042968 15.605469-27.03125 7.496094-11.003906 23.71875-11.003906 31.214844 0 13.277343.988282 21.390625 15.039063 15.609375 27.03125 5.78125 11.992188-2.332032 26.042969-15.609375 27.03125-7.492188 11.003907-23.71875 11.003907-31.210938 0zm0 0" fill="#fff"/><path d="m256.089844 76.667969c2.628906 0 5.210937-1.070313 7.070312-2.933594 1.859375-1.859375 2.929688-4.4375 2.929688-7.066406 0-2.632813-1.070313-5.210938-2.929688-7.070313-1.859375-1.863281-4.441406-2.929687-7.070312-2.929687s-5.210938 1.066406-7.070313 2.929687c-1.859375 1.859375-2.929687 4.4375-2.929687 7.070313 0 2.628906 1.070312 5.207031 2.929687 7.066406 1.859375 1.863281 4.441407 2.933594 7.070313 2.933594zm0 0"/><path d="m511.519531 433.183594-35.835937-111.609375c-11.015625-34.296875-36.605469-61.40625-70.214844-74.375-17.96875-6.933594-36.957031-9.324219-55.507812-7.304688 11.066406-15.0625 18.515624-32.726562 21.511718-51.789062 5.589844-35.5625-5.054687-71.265625-29.207031-97.960938l-78.582031-86.851562c-1.894532-2.097657-4.585938-3.28906275-7.410156-3.292969 0 0 0 0-.003907 0-2.820312 0-5.511719 1.191406-7.40625 3.28125l-78.738281 86.84375c-24.195312 26.6875-34.875 62.402344-29.300781 97.992188 2.980469 19.03125 10.402343 36.671874 21.425781 51.726562-18.578125-2.050781-37.601562.328125-55.605469 7.261719-33.59375 12.941406-59.191406 40.015625-70.234375 74.277343l-35.929687 111.476563c-.863281 2.6875-.5546878 5.617187.855469 8.0625 1.414062 2.449219 3.792968 4.183594 6.550781 4.78125l114.574219 24.765625c8.398437 1.816406 16.855468 2.707031 25.246093 2.707031 26.796875 0 52.925781-9.101562 74.269531-26.328125 14.992188-12.09375 26.558594-27.339844 34.082032-44.417968 7.515625 17.117187 19.085937 32.402343 34.09375 44.527343 21.355468 17.25 47.5 26.363281 74.320312 26.363281 8.347656 0 16.769532-.882812 25.121094-2.679687l114.507812-24.625c2.761719-.59375 5.144532-2.328125 6.554688-4.769531 1.414062-2.445313 1.730469-5.375.863281-8.0625zm-115.386719 15.59375c-9.777343-22.058594-14.222656-45.882813-13.105468-69.886719l91.753906 52.972656zm88.339844-34.410156-131.539062-75.945313c27.9375-18.703125 60.066406-29.808594 93.78125-32.332031 4.113281 6.691406 7.460937 13.925781 9.925781 21.597656zm-283.378906-88.558594c-1.492188-2.585938-1.605469-5.613282-.308594-8.300782 1.324219-2.746093 1.324219-5.941406 0-8.6875-1.296875-2.6875-1.183594-5.714843.308594-8.300781 1.492188-2.585937 4.058594-4.195312 7.035156-4.417969 3.039063-.226562 5.804688-1.824218 7.519532-4.339843 1.683593-2.46875 4.359374-3.882813 7.34375-3.882813 1.488281 0 2.898437.351563 4.148437 1.011719l.054687.03125c1.234376.660156 2.308594 1.621094 3.140626 2.839844 1.714843 2.515625 4.484374 4.113281 7.519531 4.339843 1.46875.109376 2.839843.5625 4.027343 1.296876l.058594.035156c1.195313.753906 2.207032 1.796875 2.949219 3.085937.746094 1.289063 1.144531 2.691407 1.199219 4.101563v.0625c.046875 1.398437-.25 2.808594-.890625 4.136718-1.320313 2.746094-1.320313 5.941407 0 8.6875.644531 1.328126.9375 2.738282.890625 4.136719v.0625c-.054688 1.414063-.453125 2.8125-1.199219 4.101563-1.492187 2.585937-4.054687 4.195312-7.03125 4.417968-3.039063.226563-5.808594 1.824219-7.523437 4.339844-1.679688 2.46875-4.355469 3.882813-7.34375 3.882813-2.984376 0-5.660157-1.414063-7.339844-3.882813-1.714844-2.515625-4.484375-4.113281-7.523438-4.339844-2.976562-.222656-5.539062-1.832031-7.035156-4.417968zm33.097656-57.328125c-1.492187-2.585938-1.605468-5.609375-.308594-8.300781 1.324219-2.742188 1.324219-5.941407 0-8.683594-1.296874-2.691406-1.183593-5.714844.308594-8.300782 1.492188-2.585937 4.058594-4.195312 7.035156-4.417968 3.039063-.226563 5.804688-1.828125 7.519532-4.34375 1.683594-2.46875 4.359375-3.882813 7.34375-3.882813s5.664062 1.414063 7.34375 3.882813c1.714844 2.515625 4.480468 4.117187 7.519531 4.34375 2.976563.222656 5.542969 1.832031 7.035156 4.417968 1.492188 2.585938 1.605469 5.609376.308594 8.300782-1.324219 2.742187-1.324219 5.9375 0 8.683594 1.296875 2.691406 1.183594 5.714843-.308594 8.300781-.746093 1.289062-1.757812 2.335937-2.953125 3.089843l-.042968.023438c-1.191407.742188-2.5625 1.195312-4.039063 1.304688-3.039063.226562-5.808594 1.824218-7.523437 4.34375-.832032 1.226562-1.914063 2.1875-3.15625 2.851562l-.03125.015625c-1.25.660156-2.664063 1.015625-4.152344 1.015625-1.492188 0-2.90625-.355469-4.15625-1.015625l-.023438-.011719c-1.246094-.664062-2.328125-1.628906-3.164062-2.855468-1.714844-2.519532-4.484375-4.117188-7.523438-4.34375-1.472656-.109376-2.84375-.5625-4.035156-1.304688l-.046875-.023438c-1.191406-.753906-2.203125-1.800781-2.949219-3.089843zm31.898438 53.171875c-.042969-1.402344.25-2.816406.890625-4.144532 1.324219-2.746093 1.324219-5.941406 0-8.6875-.640625-1.328124-.933594-2.742187-.890625-4.144531v-.050781c.054687-1.414062.457031-2.8125 1.199218-4.101562.742188-1.289063 1.753907-2.335938 2.949219-3.089844l.058594-.03125c1.1875-.738282 2.554687-1.1875 4.027344-1.296875 3.039062-.226563 5.804687-1.828125 7.519531-4.34375.832031-1.21875 1.910156-2.179688 3.144531-2.84375l.046875-.027344c1.25-.660156 2.664063-1.011719 4.152344-1.011719 2.984375 0 5.664062 1.414063 7.34375 3.882813 1.714844 2.515625 4.484375 4.117187 7.519531 4.34375 2.980469.21875 5.542969 1.832031 7.035157 4.417969 1.492187 2.585937 1.605468 5.609374.308593 8.300781-1.324219 2.742187-1.324219 5.9375 0 8.683593 1.296875 2.6875 1.183594 5.714844-.308593 8.300782-1.492188 2.585937-4.058594 4.195312-7.035157 4.417968-3.035156.226563-5.804687 1.824219-7.519531 4.34375-1.679688 2.46875-4.355469 3.882813-7.34375 3.882813-2.984375 0-5.660156-1.414063-7.339844-3.882813-1.714844-2.519531-4.484375-4.117187-7.523437-4.34375-2.976563-.222656-5.542969-1.832031-7.035157-4.417968-.742187-1.289063-1.144531-2.6875-1.199218-4.101563zm132.179687-55.792969c12.808594 4.941406 24.207031 12.359375 33.6875 21.683594-35.535156 4.871093-69.105469 18.484375-98.117187 39.851562l-1.980469-1.140625c.746094-4.339844.496094-8.820312-.769531-13.089844 2.230468-7.53125 1.3125-15.71875-2.683594-22.644531-4-6.921875-10.628906-11.8125-18.269531-13.644531-.511719-.542969-1.050781-1.054688-1.605469-1.550781l4.992188-2.882813c25.929687-14.957031 56.816406-17.355468 84.746093-6.582031zm-46.554687-80.859375c-4.644532 29.5625-22.171875 55.101562-48.089844 70.066406l-.101562.058594c-.007813.003906-.015626.007812-.023438.011719l-4.964844 2.867187c-.15625-.726562-.332031-1.449218-.542968-2.167968 2.234374-7.53125 1.316406-15.714844-2.683594-22.640626-3.996094-6.925781-10.625-11.8125-18.265625-13.644531-3.066407-3.234375-6.820313-5.691406-10.953125-7.214843v-8.980469c0-.027344 0-.054688 0-.085938v-39.371093c26.621094-11.863282 49.644531-30 67.359375-53.007813 15.785156 21.179687 22.417969 47.691406 18.265625 74.109375zm-95.453125-160.105469 63.800781 70.519531c-14.214844 19.496094-32.625 35.257813-53.972656 46.292969v-35.039062c0-5.523438-4.476563-10-10-10-5.523438 0-10 4.476562-10 10v81.339843c-30.164063-14.847656-55.847656-37.117187-74.890625-65.054687 3.738281-6.910156 8.332031-13.425781 13.742187-19.394531zm-93.746094 120.109375c21.988281 28.339844 50.5625 50.605469 83.574219 65.046875v2.285157c-4.132813 1.523437-7.886719 3.980468-10.949219 7.214843-7.640625 1.832031-14.273437 6.71875-18.269531 13.644531-3.996094 6.925782-4.914063 15.109376-2.683594 22.640626-.210938.71875-.386719 1.441406-.539062 2.167968l-4.964844-2.867187c-25.933594-14.972657-43.46875-40.527344-48.101563-70.113281-2.125-13.5625-1.402343-27.144532 1.933594-40.019532zm-48.683594 120.765625c27.925781-10.757812 58.808594-8.34375 84.726563 6.617188l5.085937 2.9375c-.550781.496093-1.089843 1.011719-1.601562 1.550781-7.640625 1.835938-14.273438 6.722656-18.269531 13.648438-3.996094 6.921874-4.914063 15.109374-2.683594 22.640624-1.265625 4.269532-1.515625 8.75-.769532 13.089844l-7.777343 4.492188c-.027344.011718-.050781.027344-.074219.039062l-34.089844 19.683594c-23.582031-17.125-50.804687-27.996094-79.589844-31.835938 10.453126-24.253906 30.089844-43.25 55.042969-52.863281zm-61.757812 72.207031c23.992187 2.5625 46.847656 10.621094 67.078125 23.59375l-91.753906 52.972657zm74.613281 112.945313-88.980469-19.234375 131.542969-75.949219c2.226562 33.550781-4.222656 66.925781-18.894531 97.386719-7.851563.214844-15.792969-.5-23.667969-2.203125zm82.730469-19.636719c-10.683594 8.617188-22.808594 14.785156-35.621094 18.332032 13.546875-33.210938 18.542969-69.089844 14.542969-104.902344l1.980468-1.140625c3.386719 2.816406 7.390626 4.839843 11.722657 5.875 5.40625 5.703125 12.953125 9 20.949219 9 7.996093 0 15.542968-3.296875 20.949218-9 .726563-.171875 1.441406-.382813 2.148438-.609375v5.730468c0 29.945313-13.367188 57.90625-36.671875 76.714844zm93.304687.113282c-23.28125-18.808594-36.632812-46.757813-36.632812-76.683594v-5.878906c.707031.230468 1.421875.441406 2.148437.613281 5.40625 5.699219 12.953125 9 20.949219 9s15.542969-3.296875 20.949219-9c4.332031-1.035157 8.335937-3.058594 11.722656-5.875l41.941406 24.214843c-3.039062 28.980469 1.15625 57.992188 12.222657 84.84375-26.226563 3.078126-52.5-4.433593-73.300782-21.234374zm0 0"/><path d="m256.148438 265.835938c2.640624 0 5.210937-1.0625 7.070312-2.929688 1.871094-1.859375 2.929688-4.441406 2.929688-7.070312 0-2.628907-1.058594-5.210938-2.929688-7.070313-1.859375-1.859375-4.4375-2.929687-7.070312-2.929687-2.628907 0-5.207032 1.070312-7.066407 2.929687-1.863281 1.859375-2.933593 4.441406-2.933593 7.070313 0 2.628906 1.070312 5.210937 2.933593 7.070312 1.859375 1.867188 4.4375 2.929688 7.066407 2.929688zm0 0"/><path d="m289.199219 323.167969c2.632812 0 5.210937-1.070313 7.070312-2.933594 1.859375-1.859375 2.929688-4.4375 2.929688-7.066406 0-2.632813-1.070313-5.210938-2.929688-7.070313-1.859375-1.871094-4.4375-2.929687-7.070312-2.929687-2.628907 0-5.210938 1.058593-7.078125 2.929687-1.859375 1.859375-2.921875 4.4375-2.921875 7.070313 0 2.628906 1.0625 5.207031 2.921875 7.066406 1.867187 1.863281 4.449218 2.933594 7.078125 2.933594zm0 0"/><path d="m222.980469 323.167969c2.628906 0 5.210937-1.070313 7.070312-2.933594 1.871094-1.859375 2.929688-4.4375 2.929688-7.066406 0-2.632813-1.058594-5.210938-2.929688-7.070313-1.859375-1.871094-4.441406-2.929687-7.070312-2.929687-2.628907 0-5.210938 1.058593-7.070313 2.929687-1.859375 1.859375-2.929687 4.4375-2.929687 7.070313 0 2.628906 1.070312 5.207031 2.929687 7.066406 1.859375 1.863281 4.441406 2.933594 7.070313 2.933594zm0 0"/></svg>